<svg width="42" height="42" viewBox="0 0 42 42" fill="none" xmlns="http://www.w3.org/2000/svg">
<path d="M20.6539 11.5425C18.1819 11.5425 17.8711 11.5539 16.8999 11.5971C15.9286 11.6427 15.2671 11.7953 14.6875 12.0207C14.0796 12.2494 13.529 12.608 13.0741 13.0716C12.6108 13.5268 12.2521 14.0773 12.0231 14.6851C11.7977 15.2635 11.644 15.9262 11.5996 16.894C11.5563 17.8675 11.5449 18.1772 11.5449 20.6526C11.5449 23.1257 11.5563 23.4354 11.5996 24.4066C11.6451 25.3767 11.7977 26.0383 12.0231 26.6178C12.2566 27.2167 12.5674 27.7246 13.0741 28.2312C13.5796 28.7379 14.0875 29.0499 14.6864 29.2822C15.2671 29.5076 15.9275 29.6614 16.8976 29.7058C17.87 29.749 18.1797 29.7604 20.6539 29.7604C23.1281 29.7604 23.4367 29.749 24.4091 29.7058C25.378 29.6602 26.0418 29.5076 26.6214 29.2822C27.2289 29.0534 27.7792 28.6948 28.2337 28.2312C28.7404 27.7246 29.0512 27.2167 29.2846 26.6178C29.5089 26.0383 29.6627 25.3767 29.7082 24.4066C29.7515 23.4354 29.7629 23.1257 29.7629 20.6514C29.7629 18.1772 29.7515 17.8675 29.7082 16.8951C29.6627 15.9262 29.5089 15.2635 29.2846 14.6851C29.0557 14.0773 28.6971 13.5267 28.2337 13.0716C27.779 12.6079 27.2283 12.2492 26.6203 12.0207C26.0396 11.7953 25.3769 11.6415 24.4079 11.5971C23.4355 11.5539 23.127 11.5425 20.6516 11.5425H20.655H20.6539ZM19.8375 13.1844H20.655C23.0871 13.1844 23.3752 13.1923 24.3351 13.2367C25.2232 13.2766 25.706 13.4258 26.027 13.5499C26.4517 13.715 26.7558 13.9131 27.0746 14.2319C27.3934 14.5507 27.5904 14.8536 27.7555 15.2794C27.8807 15.5994 28.0287 16.0822 28.0686 16.9703C28.113 17.9301 28.1221 18.2182 28.1221 20.6492C28.1221 23.0801 28.113 23.3693 28.0686 24.3292C28.0287 25.2173 27.8796 25.699 27.7555 26.02C27.6094 26.4156 27.3763 26.7732 27.0734 27.0664C26.7546 27.3853 26.4517 27.5822 26.0259 27.7473C25.7071 27.8726 25.2243 28.0206 24.3351 28.0616C23.3752 28.1049 23.0871 28.1151 20.655 28.1151C18.2229 28.1151 17.9337 28.1049 16.9739 28.0616C16.0857 28.0206 15.6041 27.8726 15.283 27.7473C14.8873 27.6015 14.5294 27.3688 14.2355 27.0664C13.9323 26.7727 13.6989 26.4148 13.5523 26.0189C13.4282 25.699 13.279 25.2162 13.2392 24.3281C13.1959 23.3682 13.1868 23.0801 13.1868 20.6469C13.1868 18.2148 13.1959 17.9279 13.2392 16.968C13.2802 16.0799 13.4282 15.5971 13.5534 15.276C13.7185 14.8513 13.9167 14.5473 14.2355 14.2285C14.5543 13.9097 14.8572 13.7127 15.283 13.5476C15.6041 13.4223 16.0857 13.2743 16.9739 13.2333C17.8142 13.1946 18.1398 13.1832 19.8375 13.1821V13.1844ZM25.5169 14.6965C25.3734 14.6965 25.2313 14.7247 25.0986 14.7797C24.966 14.8346 24.8455 14.9151 24.744 15.0166C24.6425 15.1181 24.562 15.2386 24.5071 15.3712C24.4521 15.5039 24.4239 15.646 24.4239 15.7895C24.4239 15.9331 24.4521 16.0752 24.5071 16.2078C24.562 16.3405 24.6425 16.461 24.744 16.5625C24.8455 16.664 24.966 16.7445 25.0986 16.7994C25.2313 16.8543 25.3734 16.8826 25.5169 16.8826C25.8068 16.8826 26.0849 16.7675 26.2899 16.5625C26.4949 16.3575 26.61 16.0794 26.61 15.7895C26.61 15.4996 26.4949 15.2216 26.2899 15.0166C26.0849 14.8116 25.8068 14.6965 25.5169 14.6965ZM20.655 15.974C20.0346 15.9643 19.4184 16.0782 18.8423 16.3089C18.2663 16.5397 17.7419 16.8827 17.2997 17.318C16.8575 17.7534 16.5063 18.2724 16.2666 18.8448C16.0269 19.4171 15.9035 20.0315 15.9035 20.652C15.9035 21.2726 16.0269 21.8869 16.2666 22.4593C16.5063 23.0317 16.8575 23.5506 17.2997 23.986C17.7419 24.4213 18.2663 24.7644 18.8423 24.9951C19.4184 25.2259 20.0346 25.3397 20.655 25.33C21.8831 25.3109 23.0543 24.8096 23.916 23.9344C24.7777 23.0592 25.2606 21.8802 25.2606 20.652C25.2606 19.4238 24.7777 18.2449 23.916 17.3697C23.0543 16.4944 21.8831 15.9932 20.655 15.974ZM20.655 17.6147C21.4604 17.6147 22.2328 17.9347 22.8023 18.5042C23.3718 19.0737 23.6917 19.8461 23.6917 20.6514C23.6917 21.4568 23.3718 22.2292 22.8023 22.7987C22.2328 23.3682 21.4604 23.6882 20.655 23.6882C19.8496 23.6882 19.0772 23.3682 18.5078 22.7987C17.9383 22.2292 17.6183 21.4568 17.6183 20.6514C17.6183 19.8461 17.9383 19.0737 18.5078 18.5042C19.0772 17.9347 19.8496 17.6147 20.655 17.6147Z" fill="white"/>
<path d="M2 11.5427V2H11.5427" stroke="#000000" stroke-width="2.22776" stroke-linecap="round" stroke-linejoin="round"/>
<path d="M2 11.5427V2H11.5427" stroke="white" stroke-width="2.22776" stroke-linecap="round" stroke-linejoin="round"/>
<path d="M40.1716 11.5427V2H30.6289" stroke="#1FEF9F" stroke-width="2.22776" stroke-linecap="round" stroke-linejoin="round"/>
<path d="M40.1716 11.5427V2H30.6289" stroke="white" stroke-width="2.22776" stroke-linecap="round" stroke-linejoin="round"/>
<path d="M11.5427 40.1711H2V30.6284" stroke="#1FEF9F" stroke-width="2.22776" stroke-linecap="round" stroke-linejoin="round"/>
<path d="M11.5427 40.1711H2V30.6284" stroke="white" stroke-width="2.22776" stroke-linecap="round" stroke-linejoin="round"/>
<path d="M30.6289 40.1711H40.1716V30.6284" stroke="#1FEF9F" stroke-width="2.22776" stroke-linecap="round" stroke-linejoin="round"/>
<path d="M30.6289 40.1711H40.1716V30.6284" stroke="white" stroke-width="2.22776" stroke-linecap="round" stroke-linejoin="round"/>
</svg>
