<svg width="17" height="18" viewBox="0 0 17 18" fill="none" xmlns="http://www.w3.org/2000/svg">
<path d="M1.54551 6.5308e-05C1.12721 6.5308e-05 0.764544 0.161519 0.458545 0.485518C0.311953 0.634041 0.195645 0.812782 0.116792 1.01072C0.0379395 1.20866 -0.00178701 1.4216 6.16798e-05 1.63642V16.3636C6.16798e-05 16.8066 0.152546 17.1905 0.458545 17.5145C0.764544 17.8385 1.12721 18 1.54551 18H15.4546C15.8729 18 16.2355 17.8385 16.5415 17.5145C16.8475 17.1905 17 16.8066 17 16.3636V1.63642C17 1.19352 16.8475 0.809517 16.5415 0.485518C16.4012 0.330303 16.2324 0.207153 16.0455 0.123662C15.8585 0.0401712 15.6574 -0.00189212 15.4546 6.5308e-05H1.54551ZM1.54551 1.63642H15.4546V16.3636H11.4467V10.8404H13.4506L13.7391 8.38585H11.4467V6.80186C11.4467 6.39277 11.5116 6.10368 11.6404 5.9335C11.8176 5.71095 12.1308 5.60077 12.5821 5.60077H13.838V3.37533C13.4516 3.32514 12.8479 3.29896 12.0267 3.29896C11.1098 3.29896 10.3762 3.58042 9.82912 4.14332C9.29748 4.70623 9.0327 5.50696 9.0327 6.54659V8.38804H7.00301V10.8426H9.0327V16.3647H1.54551V1.63642Z" fill="white"/>
</svg>
