<svg width="18" height="18" viewBox="0 0 18 18" fill="none" xmlns="http://www.w3.org/2000/svg">
<path d="M5.29321 0.000155562C4.33867 0.000155562 3.45177 0.239063 2.6336 0.715786C1.83761 1.18783 1.17701 1.85745 0.7158 2.65977C0.240147 3.45529 -0.00743354 4.36636 0.000170008 5.2932V12.707C0.000170008 13.6615 0.239077 14.5484 0.7158 15.3666C1.18287 16.1575 1.84265 16.8173 2.6336 17.2844C3.45177 17.7611 4.33867 18 5.29321 18H12.707C13.6615 18 14.5397 17.7611 15.3415 17.2844C16.1429 16.8228 16.8118 16.1622 17.2833 15.3666C17.7611 14.5484 18 13.6615 18 12.707V5.2932C18 4.33866 17.7611 3.46049 17.2844 2.65868C16.8179 1.85214 16.1474 1.18248 15.3404 0.716877C14.545 0.240841 13.6339 -0.00711856 12.707 0.000155562H5.29321ZM5.29321 1.6365H12.707C13.3724 1.6365 13.9855 1.79796 14.5484 2.12196C15.1113 2.44595 15.5542 2.88886 15.8782 3.45285C16.2022 4.01467 16.3637 4.62775 16.3637 5.2932V12.707C16.3637 13.3724 16.2022 13.9855 15.8782 14.5484C15.5621 15.1032 15.1023 15.5625 14.5473 15.8782C13.988 16.201 13.3527 16.3686 12.707 16.3636H5.29321C4.62776 16.3636 4.01468 16.2022 3.45177 15.8782C2.89703 15.562 2.43768 15.1023 2.12197 14.5473C1.79912 13.988 1.63153 13.3527 1.63652 12.707V5.2932C1.63652 4.62775 1.79797 4.01467 2.12197 3.45176C2.43818 2.89706 2.8979 2.43771 3.45286 2.12196C4.01213 1.79911 4.64747 1.63152 5.29321 1.6365ZM13.8328 3.42558C13.7323 3.42546 13.6328 3.44591 13.5405 3.48569C13.4482 3.52546 13.365 3.58371 13.296 3.65685C13.2289 3.72347 13.176 3.80312 13.1407 3.89092C13.1055 3.97872 13.0885 4.07281 13.091 4.16739C13.091 4.37248 13.1597 4.55139 13.296 4.70411C13.4488 4.84157 13.6277 4.9092 13.8328 4.9092C13.9274 4.91164 14.0214 4.8947 14.1092 4.85943C14.197 4.82416 14.2767 4.77131 14.3433 4.70411C14.4163 4.63512 14.4744 4.5519 14.514 4.45959C14.5536 4.36728 14.5738 4.26783 14.5735 4.16739C14.5753 4.07066 14.5558 3.97472 14.5161 3.88645C14.4765 3.79818 14.4179 3.71978 14.3444 3.65685C14.2813 3.58288 14.2026 3.52385 14.114 3.48404C14.0253 3.44423 13.9289 3.42463 13.8317 3.42667L13.8328 3.42558ZM9.00008 4.09103C8.11318 4.09103 7.29501 4.31248 6.54556 4.75648C5.80576 5.18969 5.1897 5.80575 4.75649 6.54555C4.31513 7.28779 4.08502 8.13655 4.09104 9.00008C4.09104 9.88698 4.31249 10.7052 4.75649 11.4546C5.1897 12.1944 5.80576 12.8105 6.54556 13.2437C7.2961 13.6877 8.11427 13.9091 9.00008 13.9091C9.88698 13.9091 10.7052 13.6877 11.4546 13.2437C12.1944 12.8105 12.8105 12.1944 13.2437 11.4546C13.6877 10.7041 13.9091 9.88589 13.9091 9.00008C13.9091 8.11318 13.6877 7.295 13.2437 6.54555C12.8105 5.80575 12.1944 5.18969 11.4546 4.75648C10.7124 4.31511 9.86361 4.08501 9.00008 4.09103ZM9.00008 5.72738C9.59681 5.72738 10.1423 5.87247 10.6364 6.16156C11.1404 6.44373 11.5564 6.85979 11.8386 7.36373C12.1277 7.85791 12.2728 8.40336 12.2728 9.00008C12.2728 9.5968 12.1277 10.151 11.8386 10.6615C11.5506 11.1545 11.1354 11.5611 10.6364 11.8386C10.1403 12.1287 9.57477 12.2787 9.00008 12.2728C8.41774 12.2765 7.84469 12.1268 7.33865 11.8386C6.85053 11.5554 6.4448 11.1496 6.16157 10.6615C5.87338 10.1555 5.72363 9.58242 5.72739 9.00008C5.72739 8.40336 5.87248 7.85791 6.16157 7.36373C6.4391 6.86475 6.84564 6.44955 7.33865 6.16156C7.84469 5.87337 8.41774 5.72362 9.00008 5.72738Z" fill="white"/>
</svg>
