<svg width="55" height="22" viewBox="0 0 55 22" fill="none" xmlns="http://www.w3.org/2000/svg">
<path d="M11.9834 21.6908C12.0998 21.1684 12.21 20.6521 12.3263 20.1358C12.5958 18.9127 12.8714 17.6835 13.1408 16.4603C13.4409 15.102 13.7389 13.7478 14.0349 12.3976C14.3411 11.0209 14.6412 9.64408 14.9474 8.27345C15.2842 6.76761 15.6149 5.26176 15.9578 3.76206C16.215 2.60655 16.4722 1.45105 16.7172 0.289395C16.76 0.0804205 16.8458 0.03125 17.0417 0.03125C21.3652 0.0373963 25.6907 0.0373963 30.0182 0.03125C30.0978 0.03125 30.1774 0.0435426 30.2999 0.0558352C30.2019 0.553686 30.1101 1.0331 30.0121 1.50636C29.8651 2.23778 29.7059 2.96919 29.5712 3.7006C29.5283 3.92186 29.4426 4.00177 29.2099 4.00177C26.6378 3.99562 24.0658 4.00177 21.4999 3.98947C21.1876 3.98947 21.0467 4.05094 20.9732 4.38898C20.6671 5.80264 20.318 7.21014 19.9873 8.62379C19.9863 8.66895 19.9883 8.71413 19.9934 8.75901H27.4523C27.3482 9.28759 27.2625 9.76701 27.1645 10.2403C27.0175 10.9717 26.8583 11.6969 26.7236 12.4345C26.6807 12.6742 26.5888 12.748 26.3439 12.748C24.0168 12.7418 21.6897 12.748 19.3688 12.7357C19.081 12.7357 18.9769 12.8156 18.9156 13.1106C18.5053 15.102 18.0705 17.0811 17.6419 19.0725C17.4704 19.8777 17.2928 20.689 17.1336 21.5003C17.103 21.6601 17.0417 21.7277 16.8764 21.7277H12.1304C12.0794 21.7257 12.0293 21.7132 11.9834 21.6908Z" fill="white"/>
<path d="M40.3324 21.6907L44.0129 4.02618H38.3115C38.3911 3.60824 38.4524 3.25175 38.5259 2.89526C38.6973 2.04093 38.8933 1.19274 39.0464 0.338399C39.0954 0.0741076 39.2117 0.0187908 39.4567 0.0187908C44.2088 0.0187908 48.963 0.0146932 53.7192 0.00649816C54.0683 0.00649816 54.4112 0.0126445 54.7603 0.000351846C54.9746 -0.00579446 55.0297 0.0679613 54.9868 0.270789C54.7786 1.27264 54.5888 2.27449 54.3683 3.27633C54.2091 3.99484 54.1969 3.99484 53.4681 3.99484C52.2433 3.99484 51.0186 4.00713 49.7938 3.99484C49.5305 3.99484 49.4264 4.06245 49.3651 4.33289C48.7221 7.2278 48.0546 10.1166 47.3994 13.0115C46.8727 15.3348 46.3481 17.6601 45.8255 19.9875C45.7092 20.4977 45.5867 21.0017 45.4765 21.5118C45.4458 21.6655 45.3846 21.7331 45.2131 21.7331C43.6515 21.7269 42.09 21.7331 40.5284 21.7331C40.4623 21.7225 40.3969 21.7084 40.3324 21.6907Z" fill="white"/>
<path d="M8.23049 3.38689C8.11413 3.4545 7.97328 3.49753 7.88143 3.59587C6.84037 4.68376 5.81156 5.77781 4.77662 6.8657C4.05401 7.6217 3.32526 8.3654 2.57203 9.15213L0 6.89644C0.4103 6.4539 0.796104 6.02981 1.18191 5.61186C2.82311 3.85401 4.46226 2.09822 6.09938 0.344469C6.18664 0.24232 6.296 0.161532 6.41912 0.108271C6.54223 0.0550105 6.67584 0.0306858 6.80975 0.037154C9.17969 0.0494466 11.5435 0.0433003 13.9134 0.0433003H14.2625C14.1584 0.522712 14.0665 0.971393 13.9686 1.41393C13.5031 3.50367 13.0336 5.59547 12.5601 7.68931C12.1314 9.59467 11.6966 11.4939 11.2741 13.3931C10.8393 15.3476 10.4167 17.3021 9.99416 19.2567C9.82882 20.0127 9.68797 20.7748 9.5165 21.5369C9.49813 21.6168 9.38178 21.7336 9.30829 21.7336C7.65484 21.7398 6.0014 21.7336 4.34795 21.7336C4.3222 21.7192 4.29763 21.7028 4.27446 21.6845C5.61559 15.6365 6.95672 9.57213 8.29785 3.49138L8.23049 3.38689Z" fill="white"/>
<path d="M37.454 0.0611864C37.3192 0.663525 37.1845 1.25357 37.0498 1.83747C36.5231 4.11775 35.9965 6.40008 35.4698 8.68446C34.9371 10.9832 34.4063 13.2839 33.8776 15.5868L32.5181 21.5063C32.4814 21.6599 32.4446 21.7398 32.2732 21.7337C30.7361 21.7275 29.1929 21.7337 27.6496 21.7275C27.602 21.7209 27.5549 21.7106 27.5088 21.6968C27.6741 20.9224 27.8334 20.1541 27.9987 19.3919C28.3294 17.8369 28.6662 16.2758 29.003 14.7208C29.3337 13.1842 29.6664 11.6455 30.0012 10.1049C30.3993 8.24869 30.7973 6.38635 31.1954 4.53017C31.5016 3.11037 31.8139 1.69672 32.1139 0.276922C32.1507 0.110972 32.2058 0.0249232 32.3895 0.0310695H37.3192C37.3653 0.0352234 37.4105 0.0453467 37.454 0.0611864Z" fill="white"/>
</svg>
