<svg width="19" height="18" viewBox="0 0 19 18" fill="none" xmlns="http://www.w3.org/2000/svg">
<path d="M17.5951 0.00258334C17.3972 0.00258334 17.1682 0.0591455 16.9099 0.171241L1.14826 7.18494L1.19407 7.16129L1.01084 7.23328C0.874388 7.29806 0.75256 7.37005 0.645351 7.45027C0.463096 7.56339 0.317876 7.70737 0.211642 7.88425C0.0505155 8.13074 -0.0223686 8.42961 0.00599592 8.72754C0.0673974 9.16153 0.288638 9.52352 0.668742 9.81251C0.775951 9.89272 0.889007 9.96574 1.01084 10.0295L1.14728 10.0778L4.73391 11.3551L6.03698 15.8626C6.15881 16.2801 6.30306 16.5928 6.47069 16.8026C6.54671 16.8992 6.63833 16.9877 6.74456 17.0679L6.9044 17.1399H6.88198L6.99602 17.1635C7.16365 17.2119 7.33129 17.2201 7.49795 17.1882C7.62666 17.1752 7.75142 17.1342 7.86441 17.0679L8.02425 16.9712L10.1489 14.9226L13.6888 17.7908L13.757 17.8145C14.1079 17.976 14.4656 18.0315 14.831 17.9832C15.1507 17.9348 15.4178 17.8227 15.6302 17.6458C15.7979 17.5019 15.9421 17.3332 16.0649 17.1399C16.1253 17.0267 16.1633 16.9393 16.1789 16.8745L16.2014 16.8026L18.943 2.05116C19.019 1.65008 19.019 1.30454 18.943 1.01453C18.9094 0.847089 18.8389 0.690328 18.7373 0.556892C18.6349 0.41617 18.5114 0.293917 18.3719 0.194894C18.1362 0.052454 17.8662 -0.0143773 17.5951 0.00258334V0.00258334ZM17.5269 1.56884V1.61717L14.8076 16.3439C14.7784 16.3768 14.7472 16.4087 14.717 16.4406C14.7021 16.4563 14.6843 16.4688 14.6647 16.4771C14.6451 16.4854 14.6241 16.4894 14.603 16.4889C14.5232 16.4791 14.4457 16.4548 14.3739 16.4169L10.0563 12.9224L7.45409 15.4286L8.00183 11.7408L15.0601 4.79905C15.1819 4.6705 15.2511 4.58308 15.2657 4.53372C15.2813 4.48539 15.2813 4.46173 15.2657 4.46173H15.2433C15.2579 4.34861 15.2277 4.28485 15.1517 4.26839C15.075 4.25398 14.996 4.26253 14.9236 4.29307L14.8096 4.34141L5.92198 10.1735V10.1488L1.62777 8.63087L17.4577 1.59249L17.5259 1.56781L17.5269 1.56884Z" fill="white"/>
</svg>
