<svg width="18" height="18" viewBox="0 0 18 18" fill="none" xmlns="http://www.w3.org/2000/svg">
<path d="M15.3749 2.61496C14.5447 1.78367 13.5569 1.12508 12.4689 0.677514C11.3847 0.227905 10.2214 -0.00235033 9.04695 0.000153677C7.45658 -0.00921984 5.89332 0.410372 4.52298 1.21442C3.19037 1.9819 2.08346 3.08452 1.31299 4.41196C0.495269 5.77368 0.0655421 7.33165 0.0699996 8.9184C0.0699996 10.5221 0.468997 12.0084 1.26599 13.378L0 18L4.75798 16.7628C6.06119 17.488 7.53018 17.8661 9.02295 17.8605H9.04695C10.6569 17.8605 12.1569 17.4551 13.5469 16.6453C14.8877 15.8701 16.0023 14.7601 16.7809 13.4248C17.5859 12.0676 18.0071 10.5187 17.9999 8.9423C18.0045 7.76707 17.7748 6.60263 17.3242 5.51649C16.8736 4.43034 16.2111 3.44411 15.3749 2.61496ZM9.04695 16.3425C7.71075 16.353 6.3973 15.9978 5.24997 15.3155L4.96897 15.1521L2.15599 15.8992L2.90599 13.1439L2.71899 12.865C1.97366 11.6833 1.5833 10.3139 1.59399 8.9184C1.59399 7.57961 1.92999 6.33447 2.60199 5.18295C3.24257 4.07776 4.16371 3.15984 5.27297 2.52133C6.41914 1.85875 7.72177 1.51218 9.04695 1.51724C10.0309 1.51724 10.9769 1.70451 11.8829 2.07806C12.7869 2.45008 13.6075 2.99763 14.2969 3.68878C14.9908 4.3755 15.5404 5.19292 15.9139 6.09341C16.2889 6.99589 16.4769 7.93822 16.4769 8.9184C16.486 10.239 16.1378 11.5376 15.4689 12.6777C14.8279 13.7827 13.9064 14.7003 12.7969 15.3384C11.6602 16.0025 10.3648 16.3494 9.04695 16.3425ZM13.1249 10.7861C12.2809 10.3658 11.7729 10.1247 11.6019 10.0629C11.5064 10.0202 11.401 10.004 11.2969 10.0161C11.2189 10.0161 11.1479 10.0699 11.0859 10.1795C10.9609 10.3817 10.7259 10.6696 10.3829 11.0431C10.3317 11.1133 10.2568 11.1628 10.1719 11.1826C10.0746 11.178 9.97907 11.1543 9.89095 11.1128L9.74995 11.0431C9.14428 10.7905 8.58265 10.4439 8.08596 10.0161C7.59865 9.557 7.18034 9.03027 6.84397 8.45221C6.79697 8.35858 6.78097 8.28088 6.79697 8.21812C6.82797 8.15537 6.87497 8.08564 6.93696 8.00894C6.98396 7.96113 7.06996 7.86749 7.19496 7.72803L7.28896 7.61149C7.35196 7.5328 7.41396 7.43219 7.47696 7.30767L7.49996 7.23794C7.56296 7.12837 7.56296 6.99589 7.49996 6.84049L6.79697 5.18295C6.73397 5.02756 6.65697 4.91898 6.56197 4.85623C6.49788 4.821 6.42502 4.80476 6.35197 4.80941H5.85897C5.64097 4.80941 5.44497 4.90305 5.27297 5.08932L5.22697 5.13614C5.02297 5.33835 4.86698 5.54056 4.75698 5.74377C4.56998 6.10137 4.47698 6.5058 4.47698 6.95704C4.47698 7.40928 4.61698 7.90734 4.89797 8.45122C5.03897 8.73212 5.20297 8.99609 5.39097 9.24512L5.43697 9.31485C5.80142 9.83142 6.20957 10.316 6.65697 10.7632C7.48396 11.6199 8.34396 12.2335 9.23395 12.607C9.62495 12.7784 10.0389 12.9337 10.4769 13.0742C10.9139 13.2137 11.3909 13.2455 11.9069 13.1678C12.1569 13.136 12.4369 13.0194 12.7499 12.8172C13.1099 12.5841 13.3279 12.35 13.4059 12.1169C13.4935 11.9086 13.5488 11.6883 13.5699 11.4635C13.5859 11.2453 13.5779 11.1128 13.5469 11.066C13.5159 11.0043 13.4139 10.9345 13.2419 10.8568L13.1249 10.7871V10.7861Z" fill="white"/>
</svg>
